<mxfile host="app.diagrams.net" modified="2022-01-05T16:30:29.384Z" agent="5.0 (Windows NT 10.0; Win64; x64) AppleWebKit/537.36 (KHTML, like Gecko) Chrome/96.0.4664.110 Safari/537.36" etag="_ZXOIWjHv6Cfsm4cIVGd" version="16.2.1" type="gitlab" pages="3">
  <diagram id="9vNvHSnr2YafrLCOGwgu" name="Basic Architecture">
    <mxGraphModel dx="868" dy="482" grid="0" gridSize="10" guides="1" tooltips="1" connect="1" arrows="1" fold="1" page="1" pageScale="1" pageWidth="850" pageHeight="1100" math="0" shadow="0">
      <root>
        <mxCell id="0" />
        <mxCell id="1" parent="0" />
        <mxCell id="mKUImBvd_qZTCKPaQKs--1" value="" style="group" vertex="1" connectable="0" parent="1">
          <mxGeometry x="50" y="130" width="591" height="110" as="geometry" />
        </mxCell>
        <mxCell id="n6H_h4pPwVsWm4qcuTGs-6" value="" style="rounded=0;whiteSpace=wrap;html=1;fillColor=default;" parent="mKUImBvd_qZTCKPaQKs--1" vertex="1">
          <mxGeometry x="120" width="370" height="110" as="geometry" />
        </mxCell>
        <mxCell id="n6H_h4pPwVsWm4qcuTGs-2" value="Wishbone&lt;br&gt;Interface&lt;br&gt;Module" style="rounded=0;whiteSpace=wrap;html=1;fillColor=#ffe6cc;strokeColor=#d79b00;" parent="mKUImBvd_qZTCKPaQKs--1" vertex="1">
          <mxGeometry x="150" y="30" width="120" height="70" as="geometry" />
        </mxCell>
        <mxCell id="n6H_h4pPwVsWm4qcuTGs-4" value="I2C Controller&lt;br&gt;Module" style="rounded=0;whiteSpace=wrap;html=1;fillColor=#d5e8d4;strokeColor=#82b366;" parent="mKUImBvd_qZTCKPaQKs--1" vertex="1">
          <mxGeometry x="350" y="30" width="120" height="70" as="geometry" />
        </mxCell>
        <mxCell id="n6H_h4pPwVsWm4qcuTGs-5" value="" style="shape=flexArrow;endArrow=classic;startArrow=classic;html=1;rounded=0;fillColor=#f5f5f5;strokeColor=#666666;" parent="mKUImBvd_qZTCKPaQKs--1" edge="1">
          <mxGeometry width="100" height="100" relative="1" as="geometry">
            <mxPoint x="270" y="64.5" as="sourcePoint" />
            <mxPoint x="350" y="64.5" as="targetPoint" />
          </mxGeometry>
        </mxCell>
        <mxCell id="n6H_h4pPwVsWm4qcuTGs-7" value="Wishbone I2C IP Core" style="text;html=1;strokeColor=none;fillColor=none;align=center;verticalAlign=middle;whiteSpace=wrap;rounded=0;fontStyle=1" parent="mKUImBvd_qZTCKPaQKs--1" vertex="1">
          <mxGeometry x="135" y="5" width="150" height="20" as="geometry" />
        </mxCell>
        <mxCell id="n6H_h4pPwVsWm4qcuTGs-8" value="" style="shape=flexArrow;endArrow=classic;startArrow=classic;html=1;rounded=0;fillColor=#f5f5f5;strokeColor=#666666;" parent="mKUImBvd_qZTCKPaQKs--1" edge="1">
          <mxGeometry width="100" height="100" relative="1" as="geometry">
            <mxPoint x="70" y="65" as="sourcePoint" />
            <mxPoint x="150" y="64.5" as="targetPoint" />
          </mxGeometry>
        </mxCell>
        <mxCell id="n6H_h4pPwVsWm4qcuTGs-10" value="&lt;b&gt;Wishbone&lt;br&gt;Signals&lt;/b&gt;" style="text;html=1;strokeColor=none;fillColor=none;align=center;verticalAlign=middle;whiteSpace=wrap;rounded=0;" parent="mKUImBvd_qZTCKPaQKs--1" vertex="1">
          <mxGeometry y="50" width="60" height="30" as="geometry" />
        </mxCell>
        <mxCell id="n6H_h4pPwVsWm4qcuTGs-13" value="" style="endArrow=classic;startArrow=classic;html=1;rounded=0;" parent="mKUImBvd_qZTCKPaQKs--1" edge="1">
          <mxGeometry width="50" height="50" relative="1" as="geometry">
            <mxPoint x="470" y="44" as="sourcePoint" />
            <mxPoint x="540" y="44" as="targetPoint" />
          </mxGeometry>
        </mxCell>
        <mxCell id="n6H_h4pPwVsWm4qcuTGs-14" value="" style="endArrow=classic;startArrow=classic;html=1;rounded=0;" parent="mKUImBvd_qZTCKPaQKs--1" edge="1">
          <mxGeometry width="50" height="50" relative="1" as="geometry">
            <mxPoint x="470" y="59.5" as="sourcePoint" />
            <mxPoint x="540" y="59.5" as="targetPoint" />
          </mxGeometry>
        </mxCell>
        <mxCell id="n6H_h4pPwVsWm4qcuTGs-15" value="" style="endArrow=classic;html=1;rounded=0;" parent="mKUImBvd_qZTCKPaQKs--1" edge="1">
          <mxGeometry width="50" height="50" relative="1" as="geometry">
            <mxPoint x="470" y="75" as="sourcePoint" />
            <mxPoint x="540" y="75" as="targetPoint" />
          </mxGeometry>
        </mxCell>
        <mxCell id="n6H_h4pPwVsWm4qcuTGs-16" value="" style="endArrow=classic;html=1;rounded=0;" parent="mKUImBvd_qZTCKPaQKs--1" edge="1">
          <mxGeometry width="50" height="50" relative="1" as="geometry">
            <mxPoint x="470" y="89" as="sourcePoint" />
            <mxPoint x="540" y="89" as="targetPoint" />
          </mxGeometry>
        </mxCell>
        <mxCell id="n6H_h4pPwVsWm4qcuTGs-18" value="" style="endArrow=none;html=1;rounded=0;" parent="mKUImBvd_qZTCKPaQKs--1" edge="1">
          <mxGeometry width="50" height="50" relative="1" as="geometry">
            <mxPoint x="505" y="94" as="sourcePoint" />
            <mxPoint x="515" y="84" as="targetPoint" />
          </mxGeometry>
        </mxCell>
        <mxCell id="n6H_h4pPwVsWm4qcuTGs-19" value="&lt;b&gt;SCL&lt;/b&gt;" style="text;html=1;strokeColor=none;fillColor=none;align=center;verticalAlign=middle;whiteSpace=wrap;rounded=0;" parent="mKUImBvd_qZTCKPaQKs--1" vertex="1">
          <mxGeometry x="530" y="30" width="60" height="30" as="geometry" />
        </mxCell>
        <mxCell id="n6H_h4pPwVsWm4qcuTGs-20" value="&lt;b&gt;SDA&lt;/b&gt;" style="text;html=1;strokeColor=none;fillColor=none;align=center;verticalAlign=middle;whiteSpace=wrap;rounded=0;" parent="mKUImBvd_qZTCKPaQKs--1" vertex="1">
          <mxGeometry x="530" y="46" width="60" height="30" as="geometry" />
        </mxCell>
        <mxCell id="n6H_h4pPwVsWm4qcuTGs-21" value="&lt;b&gt;INT&lt;/b&gt;" style="text;html=1;strokeColor=none;fillColor=none;align=center;verticalAlign=middle;whiteSpace=wrap;rounded=0;" parent="mKUImBvd_qZTCKPaQKs--1" vertex="1">
          <mxGeometry x="528" y="62" width="60" height="30" as="geometry" />
        </mxCell>
        <mxCell id="n6H_h4pPwVsWm4qcuTGs-22" value="&lt;b&gt;GPO&lt;/b&gt;" style="text;html=1;strokeColor=none;fillColor=none;align=center;verticalAlign=middle;whiteSpace=wrap;rounded=0;" parent="mKUImBvd_qZTCKPaQKs--1" vertex="1">
          <mxGeometry x="531" y="76" width="60" height="30" as="geometry" />
        </mxCell>
        <mxCell id="n6H_h4pPwVsWm4qcuTGs-23" value="&lt;b&gt;N&lt;/b&gt;" style="text;html=1;strokeColor=none;fillColor=none;align=center;verticalAlign=middle;whiteSpace=wrap;rounded=0;" parent="mKUImBvd_qZTCKPaQKs--1" vertex="1">
          <mxGeometry x="498" y="90" width="30" height="20" as="geometry" />
        </mxCell>
      </root>
    </mxGraphModel>
  </diagram>
  <diagram id="ZqN-e66zeyAPTF7NhxVA" name="Verification Environment">
    <mxGraphModel dx="755" dy="419" grid="0" gridSize="10" guides="1" tooltips="1" connect="1" arrows="1" fold="1" page="1" pageScale="1" pageWidth="850" pageHeight="1100" math="0" shadow="0">
      <root>
        <mxCell id="IGPod6j0KYinlb2H3mEN-0" />
        <mxCell id="IGPod6j0KYinlb2H3mEN-1" parent="IGPod6j0KYinlb2H3mEN-0" />
        <mxCell id="198IMb1ZNUowcCSAcffX-0" value="" style="group" vertex="1" connectable="0" parent="IGPod6j0KYinlb2H3mEN-1">
          <mxGeometry x="175" y="130" width="496" height="130" as="geometry" />
        </mxCell>
        <mxCell id="V53_TuIMGbZcTDL-4Ub2-1" value="" style="rounded=0;whiteSpace=wrap;html=1;fillColor=#f5f5f5;strokeColor=#666666;gradientColor=#b3b3b3;" vertex="1" parent="198IMb1ZNUowcCSAcffX-0">
          <mxGeometry x="9" width="356" height="130" as="geometry" />
        </mxCell>
        <mxCell id="V53_TuIMGbZcTDL-4Ub2-2" value="Wishbone&lt;br&gt;Transactions&lt;br&gt;Generator" style="rounded=0;whiteSpace=wrap;html=1;fillColor=#dae8fc;strokeColor=#6c8ebf;" vertex="1" parent="198IMb1ZNUowcCSAcffX-0">
          <mxGeometry x="25" y="30" width="120" height="70" as="geometry" />
        </mxCell>
        <mxCell id="CA1tHqMjEtXTBTyHHKLN-3" style="edgeStyle=orthogonalEdgeStyle;rounded=0;orthogonalLoop=1;jettySize=auto;html=1;exitX=0;exitY=0.75;exitDx=0;exitDy=0;entryX=1;entryY=0.75;entryDx=0;entryDy=0;" edge="1" parent="198IMb1ZNUowcCSAcffX-0" source="V53_TuIMGbZcTDL-4Ub2-3" target="V53_TuIMGbZcTDL-4Ub2-2">
          <mxGeometry relative="1" as="geometry" />
        </mxCell>
        <mxCell id="V53_TuIMGbZcTDL-4Ub2-3" value="Wishbone&lt;br&gt;I2C IP Core" style="rounded=0;whiteSpace=wrap;html=1;fillColor=#e1d5e7;strokeColor=#9673a6;" vertex="1" parent="198IMb1ZNUowcCSAcffX-0">
          <mxGeometry x="225" y="30" width="120" height="70" as="geometry" />
        </mxCell>
        <mxCell id="V53_TuIMGbZcTDL-4Ub2-4" value="" style="shape=flexArrow;endArrow=classic;startArrow=classic;html=1;rounded=0;fillColor=#f5f5f5;strokeColor=#666666;" edge="1" parent="198IMb1ZNUowcCSAcffX-0">
          <mxGeometry width="100" height="100" relative="1" as="geometry">
            <mxPoint x="145" y="51.5" as="sourcePoint" />
            <mxPoint x="225" y="51.5" as="targetPoint" />
          </mxGeometry>
        </mxCell>
        <mxCell id="V53_TuIMGbZcTDL-4Ub2-5" value="DE1-SoC Dev Board" style="text;html=1;strokeColor=none;fillColor=none;align=center;verticalAlign=middle;whiteSpace=wrap;rounded=0;fontStyle=1" vertex="1" parent="198IMb1ZNUowcCSAcffX-0">
          <mxGeometry y="106" width="150" height="20" as="geometry" />
        </mxCell>
        <mxCell id="V53_TuIMGbZcTDL-4Ub2-7" value="&lt;b&gt;Wishbone&lt;br&gt;Signals&lt;/b&gt;" style="text;html=1;strokeColor=none;fillColor=none;align=center;verticalAlign=middle;whiteSpace=wrap;rounded=0;" vertex="1" parent="198IMb1ZNUowcCSAcffX-0">
          <mxGeometry x="155" y="3" width="60" height="30" as="geometry" />
        </mxCell>
        <mxCell id="V53_TuIMGbZcTDL-4Ub2-8" value="" style="endArrow=classic;startArrow=classic;html=1;rounded=0;" edge="1" parent="198IMb1ZNUowcCSAcffX-0">
          <mxGeometry width="50" height="50" relative="1" as="geometry">
            <mxPoint x="345" y="51" as="sourcePoint" />
            <mxPoint x="415" y="51" as="targetPoint" />
          </mxGeometry>
        </mxCell>
        <mxCell id="V53_TuIMGbZcTDL-4Ub2-9" value="" style="endArrow=classic;startArrow=classic;html=1;rounded=0;" edge="1" parent="198IMb1ZNUowcCSAcffX-0">
          <mxGeometry width="50" height="50" relative="1" as="geometry">
            <mxPoint x="345" y="66.5" as="sourcePoint" />
            <mxPoint x="415" y="66.5" as="targetPoint" />
          </mxGeometry>
        </mxCell>
        <mxCell id="V53_TuIMGbZcTDL-4Ub2-11" value="" style="endArrow=classic;html=1;rounded=0;" edge="1" parent="198IMb1ZNUowcCSAcffX-0">
          <mxGeometry width="50" height="50" relative="1" as="geometry">
            <mxPoint x="345" y="85" as="sourcePoint" />
            <mxPoint x="415" y="85" as="targetPoint" />
          </mxGeometry>
        </mxCell>
        <mxCell id="V53_TuIMGbZcTDL-4Ub2-12" value="" style="endArrow=none;html=1;rounded=0;" edge="1" parent="198IMb1ZNUowcCSAcffX-0">
          <mxGeometry width="50" height="50" relative="1" as="geometry">
            <mxPoint x="380" y="90" as="sourcePoint" />
            <mxPoint x="390" y="80" as="targetPoint" />
          </mxGeometry>
        </mxCell>
        <mxCell id="V53_TuIMGbZcTDL-4Ub2-13" value="&lt;b&gt;SCL&lt;/b&gt;" style="text;html=1;strokeColor=none;fillColor=none;align=center;verticalAlign=middle;whiteSpace=wrap;rounded=0;" vertex="1" parent="198IMb1ZNUowcCSAcffX-0">
          <mxGeometry x="355" y="28" width="60" height="30" as="geometry" />
        </mxCell>
        <mxCell id="V53_TuIMGbZcTDL-4Ub2-14" value="&lt;b&gt;SDA&lt;/b&gt;" style="text;html=1;strokeColor=none;fillColor=none;align=center;verticalAlign=middle;whiteSpace=wrap;rounded=0;" vertex="1" parent="198IMb1ZNUowcCSAcffX-0">
          <mxGeometry x="355" y="45" width="60" height="30" as="geometry" />
        </mxCell>
        <mxCell id="V53_TuIMGbZcTDL-4Ub2-15" value="&lt;b&gt;INT&lt;/b&gt;" style="text;html=1;strokeColor=none;fillColor=none;align=center;verticalAlign=middle;whiteSpace=wrap;rounded=0;" vertex="1" parent="198IMb1ZNUowcCSAcffX-0">
          <mxGeometry x="157" y="60" width="60" height="30" as="geometry" />
        </mxCell>
        <mxCell id="V53_TuIMGbZcTDL-4Ub2-16" value="&lt;b&gt;GPO&lt;/b&gt;" style="text;html=1;strokeColor=none;fillColor=none;align=center;verticalAlign=middle;whiteSpace=wrap;rounded=0;" vertex="1" parent="198IMb1ZNUowcCSAcffX-0">
          <mxGeometry x="355" y="60" width="60" height="30" as="geometry" />
        </mxCell>
        <mxCell id="V53_TuIMGbZcTDL-4Ub2-17" value="&lt;b&gt;N&lt;/b&gt;" style="text;html=1;strokeColor=none;fillColor=none;align=center;verticalAlign=middle;whiteSpace=wrap;rounded=0;" vertex="1" parent="198IMb1ZNUowcCSAcffX-0">
          <mxGeometry x="373" y="86" width="30" height="20" as="geometry" />
        </mxCell>
        <mxCell id="CA1tHqMjEtXTBTyHHKLN-4" value="I2C&lt;br&gt;Test Device" style="rounded=0;whiteSpace=wrap;html=1;fillColor=#f8cecc;strokeColor=#b85450;" vertex="1" parent="198IMb1ZNUowcCSAcffX-0">
          <mxGeometry x="415" y="38" width="81" height="60" as="geometry" />
        </mxCell>
      </root>
    </mxGraphModel>
  </diagram>
  <diagram id="4TJx0FhAm24X1bX6hS0S" name="Detailed Architecture">
    <mxGraphModel dx="782" dy="468" grid="1" gridSize="10" guides="1" tooltips="1" connect="1" arrows="1" fold="1" page="1" pageScale="1" pageWidth="850" pageHeight="1100" math="0" shadow="0">
      <root>
        <mxCell id="JV5s-islnB7Vi0WG2Qqv-0" />
        <mxCell id="JV5s-islnB7Vi0WG2Qqv-1" parent="JV5s-islnB7Vi0WG2Qqv-0" />
      </root>
    </mxGraphModel>
  </diagram>
</mxfile>
